<?xml version="1.0" standalone="no"?>
<!DOCTYPE svg PUBLIC "-//W3C//DTD SVG 20010904//EN"
 "http://www.w3.org/TR/2001/REC-SVG-20010904/DTD/svg10.dtd">
<svg version="1.0" xmlns="http://www.w3.org/2000/svg"
 width="850.000000pt" height="850.000000pt" viewBox="0 0 850.000000 850.000000"
 preserveAspectRatio="xMidYMid meet">
<metadata>
Created by potrace 1.14, written by Peter Selinger 2001-2017
</metadata>
<g transform="translate(0.000000,850.000000) scale(0.100000,-0.100000)"
fill="#000000" stroke="none">
<path d="M4328 8495 c-1 -1 -50 -6 -108 -9 -58 -4 -117 -8 -130 -10 -14 -3
-55 -7 -92 -11 -37 -3 -77 -8 -90 -10 -22 -4 -110 -18 -193 -31 -37 -5 -210
-40 -245 -49 -8 -2 -35 -8 -60 -14 -329 -75 -777 -256 -1116 -451 -91 -53
-317 -198 -357 -230 -7 -5 -68 -54 -137 -108 -232 -182 -448 -393 -635 -617
-28 -33 -53 -62 -56 -65 -3 -3 -39 -50 -80 -105 -412 -548 -698 -1218 -793
-1855 -28 -193 -31 -210 -43 -355 -10 -114 -10 -562 -1 -675 13 -148 55 -430
72 -488 3 -9 7 -28 10 -42 23 -135 136 -503 201 -655 113 -264 181 -400 299
-595 123 -203 299 -444 433 -592 277 -305 506 -507 788 -695 105 -70 223 -143
231 -143 3 0 18 -9 33 -19 39 -28 309 -162 435 -215 160 -69 440 -160 556
-182 14 -3 39 -9 55 -14 35 -11 334 -65 414 -75 30 -4 61 -8 70 -10 9 -1 47
-6 84 -10 37 -3 76 -8 85 -10 103 -19 589 -26 746 -12 78 8 229 26 265 32 13
2 45 7 70 11 50 7 51 7 164 29 549 105 1157 376 1631 729 329 244 633 551 891
901 91 124 134 192 193 312 23 46 56 106 75 135 73 116 151 319 200 528 120
504 31 1012 -238 1369 -186 246 -436 418 -713 491 -108 29 -168 35 -312 34
-279 -3 -513 -77 -756 -240 -44 -30 -85 -54 -91 -54 -14 0 18 165 51 264 42
123 120 266 190 345 163 184 297 253 486 250 240 -4 537 1 602 10 212 31 332
83 428 188 87 96 121 204 114 368 -7 168 -37 275 -152 540 -89 205 -99 213
-121 100 -7 -33 -14 -69 -17 -80 -3 -11 -7 -33 -10 -50 -17 -100 -79 -253
-130 -322 -86 -115 -202 -214 -369 -315 -88 -53 -132 -78 -285 -161 -248 -133
-407 -244 -535 -373 -207 -208 -304 -443 -329 -805 -4 -53 -18 -84 -46 -99
-17 -9 -20 -6 -30 27 -34 120 -55 452 -36 569 2 16 7 49 11 74 18 123 102 355
155 430 20 29 30 32 140 45 260 30 521 219 646 467 69 136 102 273 108 441 3
70 -1 87 -19 87 -11 0 -260 -182 -325 -237 -14 -12 -56 -47 -95 -79 -91 -76
-267 -251 -338 -335 -172 -207 -274 -419 -337 -704 -26 -114 -35 -353 -18
-465 5 -36 10 -72 10 -80 0 -8 12 -64 26 -125 13 -60 29 -131 35 -157 6 -26 8
-50 4 -54 -13 -14 -57 28 -124 118 -154 205 -275 454 -252 516 5 12 28 50 52
85 85 121 145 255 162 357 4 25 9 54 11 65 7 37 6 140 -1 180 -19 100 -115
240 -183 266 -31 12 -38 7 -66 -49 -150 -301 -171 -644 -60 -955 37 -102 104
-231 168 -326 59 -87 81 -112 195 -234 66 -71 72 -80 58 -94 -14 -14 -22 -13
-89 13 -178 68 -397 221 -414 291 -4 14 -2 48 5 75 16 72 14 199 -5 255 -35
102 -116 165 -219 169 -77 3 -125 -16 -125 -49 0 -38 48 -173 92 -262 124
-248 346 -432 614 -510 47 -14 90 -27 95 -31 14 -9 11 -46 -11 -110 -11 -32
-20 -60 -19 -62 0 -1 -2 -19 -5 -40 -3 -20 -8 -65 -11 -99 -5 -57 -14 -76 -89
-200 -98 -162 -131 -226 -179 -349 -32 -81 -77 -235 -77 -263 0 -18 30 -12 37
7 12 31 91 128 174 211 170 173 319 259 545 317 151 39 225 66 321 120 131 73
237 172 345 324 123 173 254 263 363 253 97 -10 232 -58 320 -114 111 -72 213
-197 259 -321 34 -90 38 -117 41 -263 2 -104 -2 -152 -20 -240 -68 -326 -189
-553 -409 -769 -140 -136 -293 -230 -418 -257 -113 -24 -147 -27 -248 -24 -63
2 -124 6 -135 8 -11 2 -36 7 -55 11 -54 10 -70 13 -145 31 -38 9 -77 18 -85
20 -8 1 -33 8 -55 13 -22 6 -51 13 -65 16 -14 3 -79 17 -145 31 -217 47 -372
63 -575 60 -102 -2 -194 -5 -205 -8 -11 -2 -42 -8 -70 -11 -125 -18 -391 -93
-502 -142 -18 -8 -50 -21 -70 -30 -293 -126 -543 -288 -738 -480 -124 -122
-148 -149 -300 -339 -206 -257 -422 -485 -458 -485 -25 1 -67 36 -113 95 -53
69 -68 112 -68 200 -1 105 28 167 121 258 37 36 64 69 60 74 -14 13 -136 -59
-181 -107 -96 -103 -131 -235 -101 -382 5 -25 4 -38 -4 -38 -19 0 -185 146
-266 234 -229 250 -331 480 -327 731 7 365 179 658 482 823 107 58 277 113
395 127 28 4 59 9 69 12 32 9 325 11 406 3 71 -8 146 -18 180 -25 8 -2 18 -4
23 -4 36 -4 -58 -164 -151 -256 -128 -129 -286 -211 -657 -346 -110 -39 -237
-89 -281 -109 -300 -138 -396 -327 -298 -585 18 -44 23 -50 49 -50 l30 0 7 85
c14 188 66 237 303 284 39 8 88 17 110 20 22 3 58 8 80 11 22 3 58 8 80 11
619 76 986 290 1187 689 70 138 136 371 153 535 4 36 8 67 10 70 7 11 -24 41
-46 46 -64 13 -178 35 -209 40 -19 3 -40 7 -47 9 -6 2 -38 7 -70 10 -32 4 -69
9 -83 12 -43 9 -452 11 -515 2 -33 -4 -85 -10 -115 -13 -124 -12 -244 -38
-400 -87 -387 -122 -657 -335 -823 -649 -29 -56 -82 -194 -92 -240 -2 -8 -9
-37 -15 -65 -19 -80 -25 -142 -25 -265 0 -188 29 -317 104 -475 76 -159 140
-244 291 -391 149 -144 388 -312 548 -384 44 -20 52 -39 26 -64 -33 -34 -77
-17 -284 113 -226 141 -433 312 -610 500 -240 258 -301 351 -385 593 -32 91
-47 143 -61 213 -2 11 -6 31 -9 45 -32 163 -24 399 20 568 45 175 108 315 190
425 53 69 60 97 18 70 -93 -61 -230 -274 -292 -454 -35 -100 -67 -254 -77
-362 -4 -47 -11 -76 -17 -74 -10 3 -79 266 -92 347 -3 20 -8 47 -10 60 -14 68
-20 170 -20 320 0 269 14 341 78 408 72 76 153 93 397 87 96 -2 186 -6 200 -9
14 -2 77 -11 140 -20 63 -9 124 -18 135 -20 11 -2 45 -7 75 -11 30 -3 66 -8
80 -10 14 -2 57 -7 95 -11 39 -4 84 -8 100 -10 45 -5 326 -5 355 0 14 2 56 7
94 10 38 4 71 8 75 10 3 2 29 7 56 10 174 23 459 131 650 247 80 49 227 156
300 219 68 60 259 252 322 326 114 133 313 393 313 410 0 6 -12 16 -27 23 -47
21 -283 108 -373 136 -47 15 -103 33 -126 40 -45 15 -312 81 -359 89 -16 3
-41 8 -55 10 -24 5 -37 7 -145 21 -27 4 -61 9 -75 11 -142 24 -636 23 -800 -2
-471 -70 -821 -201 -1111 -415 -353 -261 -610 -691 -675 -1129 -24 -166 -24
-439 0 -590 3 -14 10 -59 16 -100 29 -186 112 -465 187 -630 116 -256 218
-423 401 -655 88 -112 305 -330 437 -440 176 -147 404 -294 608 -394 59 -28
107 -56 107 -61 0 -5 -14 -16 -32 -24 -31 -16 -33 -15 -122 31 -207 106 -464
275 -671 440 -508 407 -908 1067 -1034 1708 -40 204 -46 274 -46 550 0 260 7
336 47 529 97 474 312 890 582 1128 111 98 124 118 55 82 -74 -37 -129 -80
-233 -182 -188 -184 -326 -396 -439 -672 -35 -84 -103 -291 -112 -340 -14 -75
-47 -210 -52 -210 -7 0 4 156 18 235 6 39 13 80 14 92 9 67 53 253 83 353 14
47 27 90 28 95 8 44 90 238 154 370 107 217 250 443 375 590 47 55 119 99 199
122 61 17 295 25 386 12 36 -5 87 -12 114 -15 26 -3 125 -26 220 -50 539 -139
723 -181 865 -199 30 -4 63 -8 74 -11 128 -24 519 -24 617 1 8 2 35 7 60 10
81 11 272 65 389 111 240 94 459 228 704 432 158 131 417 383 417 405 0 16
-472 257 -657 336 -220 94 -588 208 -755 235 -89 14 -112 18 -129 21 -10 2
-46 6 -81 10 -35 3 -81 8 -103 10 -54 6 -365 6 -445 0 -129 -9 -194 -17 -395
-50 -275 -46 -431 -97 -713 -237 -436 -215 -779 -503 -1072 -900 -247 -335
-414 -705 -515 -1143 -20 -88 -39 -162 -42 -165 -5 -5 4 135 12 181 2 13 6 50
9 81 3 32 8 68 10 80 3 13 8 39 10 58 41 285 164 675 317 997 198 419 415 718
804 1109 196 197 285 264 480 360 299 149 572 217 856 216 114 0 150 -3 244
-18 405 -64 780 -213 1420 -566 259 -143 478 -217 775 -263 153 -23 569 -24
700 -1 14 2 63 9 110 15 175 23 308 52 485 106 116 35 379 129 460 165 22 10
69 29 105 44 157 64 163 73 97 143 -25 27 -55 59 -67 73 -129 150 -382 410
-485 500 -61 54 -184 152 -240 191 -81 58 -216 149 -220 149 -3 0 -34 18 -70
40 -202 123 -613 305 -815 359 -80 22 -285 65 -385 82 -33 5 -71 12 -85 14
-14 3 -54 8 -90 11 -36 4 -78 8 -95 11 -37 4 -562 13 -567 8z m282 -629 c14
-3 48 -7 75 -10 94 -9 277 -40 419 -71 358 -80 762 -255 1089 -473 80 -53 96
-68 85 -78 -13 -13 -218 -58 -318 -69 -383 -45 -668 -14 -965 105 -71 28 -289
119 -370 155 -272 119 -717 249 -962 280 -24 3 -60 7 -80 10 -60 8 -151 14
-240 17 -46 1 -81 3 -79 5 17 17 358 95 476 109 30 3 57 8 60 10 4 1 51 6 105
10 55 3 102 8 104 10 7 6 572 -4 601 -10z m-988 -1500 c186 -11 370 -43 602
-106 176 -48 369 -116 399 -141 l22 -19 -35 -30 c-47 -40 -252 -179 -320 -217
-150 -84 -390 -165 -560 -190 -19 -2 -62 -9 -95 -13 -61 -9 -469 -6 -515 3
-14 3 -47 8 -75 12 -27 3 -75 10 -105 15 -117 20 -231 38 -285 45 -16 2 -43 6
-60 9 -16 3 -50 8 -75 12 -25 3 -52 7 -60 10 -8 2 -40 6 -70 9 -30 4 -66 8
-79 10 -35 6 -203 15 -354 19 -71 3 -131 6 -133 9 -7 7 95 89 190 151 106 70
276 159 401 211 50 20 99 41 110 45 109 45 353 111 482 130 43 6 89 13 103 16
14 2 68 7 120 10 52 4 96 7 97 8 4 3 204 -2 295 -8z m4138 -392 c37 -152 34
-243 -10 -336 -49 -106 -142 -161 -355 -213 -168 -40 -180 -42 -435 -60 -41
-3 -88 -7 -105 -10 -58 -10 -90 -15 -114 -20 -40 -8 -15 7 174 105 344 177
391 204 517 303 147 114 220 184 256 247 31 55 44 72 49 66 2 -2 13 -39 23
-82z m-1043 60 c9 -24 -80 -192 -142 -266 -95 -116 -217 -201 -392 -271 -63
-25 -63 -25 -51 -4 43 82 327 388 430 462 90 65 133 94 141 95 4 0 10 -7 14
-16z m-1105 -529 c49 -123 17 -346 -80 -558 l-36 -79 -14 44 c-9 28 -15 94
-16 193 -1 164 10 230 67 378 34 92 50 96 79 22z m-345 -834 c23 -61 41 -181
27 -181 -30 0 -134 240 -120 277 12 30 67 -27 93 -96z m-2032 -55 c33 -4 79
-9 103 -11 104 -12 143 -17 242 -35 58 -11 119 -22 135 -25 98 -17 209 -47
224 -60 11 -11 -2 -29 -80 -110 -290 -300 -648 -474 -1064 -519 -145 -16 -205
-18 -495 -21 -173 -1 -328 -5 -345 -8 -16 -3 -60 -9 -97 -12 -37 -3 -77 -8
-90 -10 -13 -2 -40 -6 -60 -9 -57 -9 -186 -55 -229 -82 -73 -45 -75 -34 -15
84 157 315 377 519 726 675 79 36 288 96 385 111 17 2 50 8 75 11 25 4 54 9
65 11 11 2 56 7 100 10 44 3 81 7 83 8 5 5 278 -2 337 -8z m3228 -2544 c20 -5
-20 -16 -175 -47 -157 -31 -360 -125 -498 -231 -132 -100 -217 -202 -425 -504
-189 -275 -244 -341 -370 -447 -81 -68 -137 -104 -231 -151 -71 -36 -179 -76
-230 -86 -10 -3 -41 -9 -68 -16 -27 -6 -70 -13 -95 -16 -25 -2 -66 -7 -91 -10
-91 -11 -306 -5 -410 11 -14 2 -70 11 -125 19 -165 25 -185 28 -190 36 -2 4
80 6 183 6 164 -1 396 10 412 19 3 1 28 5 55 9 107 13 207 37 325 78 167 59
296 142 429 277 142 145 145 169 15 122 -112 -41 -196 -62 -304 -77 -25 -3
-54 -8 -65 -10 -33 -6 -266 -5 -315 2 -47 6 -170 29 -205 38 -131 34 -132 34
95 34 199 0 287 4 350 16 14 3 41 7 60 10 105 15 325 81 439 133 122 55 267
171 347 277 178 238 377 384 624 460 138 42 389 68 463 48z"/>
</g>
</svg>
